<svg width="32" height="32" viewBox="0 0 32 32" fill="none" xmlns="http://www.w3.org/2000/svg">
<rect width="32" height="32" fill="white"/>
<path d="M3.16419 14.0005H3.00849C3.00059 14.0005 2.99535 14.0128 3.006 14.0201C3.08979 14.08 3.14673 14.1704 3.1646 14.2718C3.1646 14.1509 3.16419 14.0005 3.16419 14.0005Z" fill="#14140B"/>
<path d="M3.16392 17.4921H3.034C3.02569 17.4921 3.02086 17.4798 3.03151 17.4725C3.10669 17.4093 3.15428 17.3193 3.16417 17.2216V17.2208L3.16392 17.4921Z" fill="#14140B"/>
<path d="M3.68791 17.4921H3.8184C3.82672 17.4921 3.83146 17.4798 3.82082 17.4725C3.74551 17.4094 3.69778 17.3194 3.68774 17.2216V17.2208L3.68791 17.4921Z" fill="#14140B"/>
<path d="M3.68796 17.4921V15.9591H4.24636C4.41812 15.9685 4.58955 15.9354 4.74538 15.8625C5.21305 15.6704 5.25738 15.1657 5.25738 14.9836C5.25738 14.7227 5.19392 14.4384 5.01094 14.2587C4.82797 14.0789 4.54927 14.0008 4.22449 14.0008H3.16382V17.4921H3.68796ZM3.68796 14.2611H4.01282C4.12477 14.2575 4.23623 14.2774 4.34009 14.3193C4.42353 14.3551 4.49649 14.4115 4.55209 14.4833C4.60402 14.5519 4.64056 14.6308 4.65922 14.7148C4.67962 14.8002 4.69006 14.8876 4.69032 14.9754C4.68945 15.0454 4.68108 15.1151 4.66537 15.1833C4.64672 15.2643 4.61139 15.3404 4.56166 15.4069C4.50118 15.4886 4.42058 15.5532 4.3277 15.5945C4.20021 15.6495 4.06205 15.6752 3.92333 15.6698H3.68796V14.2611Z" fill="#14140B"/>
<path d="M5.37638 17.4921H5.51495C5.52285 17.4921 5.52809 17.4798 5.51744 17.4725C5.48966 17.446 5.47082 17.4114 5.46352 17.3737C5.45622 17.336 5.46082 17.2969 5.47669 17.2619L5.36499 17.259L5.37638 17.4921Z" fill="#14140B"/>
<path d="M7.49946 17.4921H7.36713C7.35923 17.4921 7.35399 17.4798 7.36464 17.4725C7.39161 17.4454 7.40944 17.4105 7.41562 17.3728C7.42181 17.335 7.41605 17.2963 7.39915 17.2619L7.51085 17.259L7.49946 17.4921Z" fill="#14140B"/>
<path d="M5.3947 17.4921L5.82661 16.2839H7.03565L7.48394 17.4921H8.09657L6.69549 14.0002L6.3589 14.2612L4.97827 17.4921H5.3947ZM6.4177 14.7115L6.94674 16.0649H5.89314L6.4177 14.7115Z" fill="#14140B"/>
<path d="M8.61277 14.0004H8.45708C8.45495 14.0008 8.453 14.0019 8.45152 14.0035C8.45004 14.0051 8.44909 14.0071 8.44881 14.0093C8.44854 14.0114 8.44895 14.0136 8.44998 14.0155C8.45102 14.0175 8.45263 14.019 8.45459 14.0199C8.53836 14.0799 8.59528 14.1703 8.61311 14.2717C8.61277 14.1508 8.61277 14.0004 8.61277 14.0004Z" fill="#14140B"/>
<path d="M8.61277 17.4921H8.48286C8.47496 17.4921 8.46972 17.4798 8.48036 17.4725C8.55554 17.4093 8.60313 17.3193 8.61302 17.2216V17.2208L8.61277 17.4921Z" fill="#14140B"/>
<path d="M9.13729 17.4921H9.26778C9.27569 17.4921 9.28092 17.4798 9.27028 17.4725C9.19496 17.4094 9.14722 17.3194 9.13721 17.2216V17.2208L9.13729 17.4921Z" fill="#14140B"/>
<path d="M10.332 17.4921H10.1823C10.174 17.4921 10.1724 17.4817 10.1772 17.4737C10.217 17.3981 10.1931 17.2772 10.1431 17.1522L10.2124 17.1466L10.332 17.4921Z" fill="#14140B"/>
<path d="M8.61267 14.0003L8.61084 17.4919H9.13847L9.13664 15.9097H9.54933C9.54933 15.9097 10.2221 17.3424 10.3216 17.4919H10.969L10.0821 15.7964C10.2188 15.7614 10.3497 15.707 10.4709 15.6348C10.6768 15.5147 10.8709 15.2756 10.8753 14.8375C10.8806 14.3066 10.3579 14.0761 10.2284 14.0457C10.092 14.0146 9.95247 13.9993 9.81257 14.0002L8.61267 14.0003ZM9.13664 14.1999H9.61071C9.70377 14.1909 9.79768 14.2024 9.88577 14.2338C9.97387 14.2651 10.054 14.3154 10.1205 14.3811C10.1869 14.4469 10.2381 14.5265 10.2703 14.6142C10.3026 14.702 10.3152 14.7958 10.3071 14.8889C10.3071 15.1384 10.2547 15.3039 10.0807 15.4536C9.95637 15.5606 9.74112 15.6071 9.51515 15.6071H9.13664V14.1999Z" fill="#14140B"/>
<path d="M29.9996 15.767C30.0062 16.0343 29.9488 16.2992 29.8322 16.5398C29.7284 16.7485 29.5797 16.9317 29.3968 17.0763C29.2148 17.2165 29.0088 17.3224 28.7889 17.3889C28.5633 17.4578 28.3285 17.4927 28.0926 17.4922H27.123V14.0003H28.191C28.4014 14.0003 28.6106 14.0331 28.8111 14.0975C29.0012 14.1557 29.1807 14.2442 29.3426 14.3595C29.5491 14.5073 29.715 14.7046 29.825 14.9334C29.9467 15.1941 30.0064 15.4794 29.9996 15.767ZM29.3968 15.7642C29.3996 15.5526 29.368 15.3419 29.3032 15.1404C29.245 14.9621 29.1522 14.7969 29.0301 14.6545C28.9154 14.5216 28.773 14.4154 28.613 14.3434C28.4401 14.2661 28.2524 14.2274 28.063 14.2301C27.9957 14.2301 27.9198 14.2312 27.8354 14.2336C27.751 14.236 27.6882 14.238 27.6472 14.2397L27.6515 17.2444C27.6515 17.2444 27.9982 17.2591 28.1787 17.2591C28.3665 17.2634 28.553 17.2265 28.725 17.151C28.8745 17.0837 29.0047 16.98 29.1039 16.8495C29.2081 16.7092 29.2838 16.5498 29.3266 16.3804C29.3763 16.1789 29.4 15.9718 29.3971 15.7642H29.3968Z" fill="#14140B"/>
<path d="M27.1232 14.0003H26.9676C26.9654 14.0007 26.9635 14.0018 26.962 14.0034C26.9605 14.005 26.9596 14.007 26.9593 14.0091C26.959 14.0113 26.9594 14.0135 26.9605 14.0154C26.9615 14.0173 26.9631 14.0188 26.9651 14.0198C27.0488 14.0798 27.1058 14.1702 27.1236 14.2716C27.1236 14.1506 27.1232 14.0003 27.1232 14.0003Z" fill="#14140B"/>
<path d="M27.1239 17.4921H26.994C26.9856 17.4921 26.9808 17.4798 26.9915 17.4726C27.0668 17.4095 27.1145 17.3195 27.1245 17.2217V17.2208L27.1239 17.4921Z" fill="#14140B"/>
<path d="M21.1239 17.4922H21.2625C21.2708 17.4922 21.2756 17.4798 21.265 17.4726C21.2372 17.4461 21.2184 17.4115 21.2111 17.3738C21.2038 17.3361 21.2084 17.297 21.2242 17.262L21.1125 17.2591L21.1239 17.4922Z" fill="#14140B"/>
<path d="M23.247 17.4922H23.1147C23.1068 17.4922 23.1016 17.4798 23.1122 17.4726C23.1392 17.4455 23.157 17.4106 23.1632 17.3728C23.1694 17.3351 23.1636 17.2963 23.1467 17.262L23.2584 17.2591L23.247 17.4922Z" fill="#14140B"/>
<path d="M21.1421 17.4922L21.5746 16.284H22.7833L23.2316 17.4922H23.8442L22.4428 14.0003L22.1065 14.2612L20.7253 17.4922H21.1421ZM22.1651 14.7116L22.6941 16.065H21.6404L22.1651 14.7116Z" fill="#14140B"/>
<path d="M15.7289 17.4921H15.8675C15.8754 17.4921 15.8805 17.4798 15.87 17.4725C15.8422 17.446 15.8233 17.4115 15.816 17.3737C15.8087 17.336 15.8133 17.2969 15.8292 17.2619L15.7175 17.259L15.7289 17.4921Z" fill="#14140B"/>
<path d="M17.8522 17.4921H17.7199C17.712 17.4921 17.7068 17.4798 17.7174 17.4725C17.7444 17.4454 17.7622 17.4105 17.7684 17.3727C17.7746 17.335 17.7688 17.2962 17.7519 17.2619L17.8636 17.259L17.8522 17.4921Z" fill="#14140B"/>
<path d="M15.7473 17.4921L16.1798 16.2839H17.3885L17.8368 17.4921H18.4494L17.0481 14.0002L16.7119 14.2612L15.3306 17.4921H15.7473ZM16.7703 14.7115L17.2994 16.0649H16.2456L16.7703 14.7115Z" fill="#14140B"/>
<path d="M24.3154 14.0005H24.1597C24.1575 14.0009 24.1556 14.002 24.1541 14.0036C24.1526 14.0052 24.1517 14.0072 24.1514 14.0094C24.1512 14.0115 24.1516 14.0137 24.1526 14.0156C24.1537 14.0175 24.1553 14.0191 24.1572 14.02C24.241 14.08 24.2979 14.1704 24.3158 14.2719C24.3154 14.1509 24.3154 14.0005 24.3154 14.0005Z" fill="#14140B"/>
<path d="M24.3158 17.4921H24.1858C24.1775 17.4921 24.1727 17.4798 24.1834 17.4726C24.2585 17.4094 24.3061 17.3194 24.3161 17.2217V17.2208L24.3158 17.4921Z" fill="#14140B"/>
<path d="M24.8398 17.4921H24.9702C24.9785 17.4921 24.9833 17.4798 24.9727 17.4726C24.8973 17.4095 24.8496 17.3194 24.8396 17.2217V17.2208L24.8398 17.4921Z" fill="#14140B"/>
<path d="M26.0346 17.4921H25.8849C25.8766 17.4921 25.875 17.4818 25.8798 17.4738C25.9196 17.3982 25.8957 17.2773 25.8457 17.1523L25.9151 17.1467L26.0346 17.4921Z" fill="#14140B"/>
<path d="M24.3153 14.0004L24.3135 17.492H24.8411L24.8394 15.9097H25.2521C25.2521 15.9097 25.9249 17.3425 26.0244 17.492H26.6718L25.7849 15.7965C25.9215 15.7615 26.0524 15.7071 26.1736 15.6349C26.3795 15.5148 26.5736 15.2757 26.578 14.8376C26.5834 14.3066 26.0607 14.0762 25.9311 14.0458C25.7947 14.0147 25.6552 13.9994 25.5153 14.0002L24.3153 14.0004ZM24.8393 14.1996H25.3133C25.4064 14.1906 25.5003 14.2021 25.5884 14.2335C25.6765 14.2648 25.7566 14.3151 25.823 14.3809C25.8895 14.4466 25.9407 14.5262 25.9729 14.6139C26.0052 14.7017 26.0178 14.7954 26.0097 14.8886C26.0097 15.1381 25.9572 15.3035 25.7833 15.4532C25.659 15.5603 25.4438 15.6068 25.2178 15.6068H24.8393V14.1996Z" fill="#14140B"/>
<path d="M11.5099 14.0003H11.3542C11.3521 14.0008 11.3502 14.0019 11.3487 14.0035C11.3472 14.0051 11.3463 14.0071 11.346 14.0092C11.3458 14.0114 11.3462 14.0136 11.3472 14.0155C11.3483 14.0174 11.3499 14.0189 11.3518 14.0199C11.4355 14.0799 11.4925 14.1702 11.5103 14.2716C11.5103 14.1507 11.5099 14.0003 11.5099 14.0003Z" fill="#14140B"/>
<path d="M14.7899 14.0002H14.9456C14.9477 14.0006 14.9497 14.0017 14.9511 14.0033C14.9526 14.0049 14.9536 14.0069 14.9538 14.009C14.9541 14.0112 14.9537 14.0134 14.9527 14.0153C14.9516 14.0172 14.95 14.0188 14.9481 14.0197C14.8643 14.0796 14.8074 14.17 14.7896 14.2715C14.7896 14.1505 14.7899 14.0002 14.7899 14.0002Z" fill="#14140B"/>
<path d="M14.2704 17.4921H14.1404C14.1321 17.4921 14.1273 17.4798 14.138 17.4725C14.2131 17.4093 14.2607 17.3193 14.2706 17.2216V17.2208L14.2704 17.4921Z" fill="#14140B"/>
<path d="M14.7947 17.4921H14.9255C14.9338 17.4921 14.9386 17.4798 14.9279 17.4725C14.8526 17.4094 14.8049 17.3194 14.7948 17.2216V17.2208L14.7947 17.4921Z" fill="#14140B"/>
<path d="M11.5081 17.4921H11.3781C11.3702 17.4921 11.365 17.4798 11.3757 17.4725C11.4508 17.4093 11.4984 17.3193 11.5083 17.2216V17.2208L11.5081 17.4921Z" fill="#14140B"/>
<path d="M11.8018 17.4921H11.9323C11.9402 17.4921 11.9455 17.4798 11.9348 17.4725C11.8595 17.4094 11.8118 17.3194 11.8018 17.2216V17.2208L11.8018 17.4921Z" fill="#14140B"/>
<path d="M11.5095 14L11.5046 17.492H11.8068L11.7538 14.3986H11.7858L12.8508 17.492H13.2985L14.2341 14.4602H14.271L14.2664 17.492H14.7945V14H14.1847L13.2281 17.0524L12.1574 14H11.5095Z" fill="#14140B"/>
<path d="M18.3203 14.0003H18.1646C18.1625 14.0007 18.1605 14.0018 18.159 14.0034C18.1576 14.005 18.1566 14.007 18.1563 14.0091C18.1561 14.0113 18.1565 14.0135 18.1575 14.0154C18.1585 14.0173 18.1601 14.0188 18.1621 14.0198C18.265 14.0831 18.3518 14.1693 18.416 14.2716C18.4053 14.175 18.3726 14.0822 18.3203 14.0003Z" fill="#14140B"/>
<path d="M21.2148 14.0003H21.3367C21.3388 14.0007 21.3408 14.0018 21.3422 14.0034C21.3437 14.005 21.3447 14.007 21.3449 14.0091C21.3452 14.0113 21.3448 14.0135 21.3438 14.0154C21.3427 14.0173 21.3411 14.0188 21.3392 14.0198C21.2263 14.0739 21.1299 14.1572 21.0601 14.261C21.0601 14.1397 21.2148 14.0003 21.2148 14.0003Z" fill="#14140B"/>
<path d="M19.4361 17.4921H19.3062C19.2979 17.4921 19.2931 17.4798 19.3037 17.4726C19.3788 17.4095 19.4264 17.3197 19.4364 17.2221V17.2213L19.4361 17.4921Z" fill="#14140B"/>
<path d="M19.9604 17.4921H20.0909C20.0988 17.4921 20.1039 17.4798 20.0933 17.4726C20.018 17.4095 19.9702 17.3194 19.9602 17.2217V17.2208L19.9604 17.4921Z" fill="#14140B"/>
<path d="M19.4363 17.4922H19.9603L19.9701 16.0991L21.2142 14.0003H20.8765C20.8765 14.0003 20.112 15.3321 19.8545 15.7468C19.7249 15.5139 18.9037 14.0003 18.9037 14.0003H18.2646L19.4362 16.1006L19.4363 17.4922Z" fill="#14140B"/>
</svg>
