<svg id="图层_1" data-name="图层 1" xmlns="http://www.w3.org/2000/svg" width="138.378mm" height="40.106mm" viewBox="0 0 392.253 113.688">
  <g>
    <g>
      <path d="M38.989,35.164H37.117c-.095,0-.158.148-.03.235a4.73,4.73,0,0,1,1.907,3.027C38.994,36.972,38.989,35.164,38.989,35.164Z" fill="#fff"/>
      <path d="M38.984,77.146H37.422c-.1,0-.158-.148-.03-.235a4.538,4.538,0,0,0,1.595-3.017l0-.01Z" fill="#fff"/>
      <path d="M45.286,77.146h1.569c.1,0,.157-.148.029-.235a4.543,4.543,0,0,1-1.6-3.017l0-.01Z" fill="#fff"/>
      <path d="M45.286,77.146V58.714H52a12.54,12.54,0,0,0,6-1.161c5.623-2.31,6.156-8.378,6.156-10.568,0-3.136-.763-6.555-2.963-8.716s-5.551-3.1-9.456-3.1H38.984V77.146Zm0-38.848h3.906a9.7,9.7,0,0,1,3.935.7,6.433,6.433,0,0,1,2.549,1.972,7.194,7.194,0,0,1,1.288,2.783,13.66,13.66,0,0,1,.374,3.134,11.8,11.8,0,0,1-.3,2.5,7.182,7.182,0,0,1-1.247,2.688,7.077,7.077,0,0,1-2.813,2.256,11.194,11.194,0,0,1-4.862.905H45.286Z" fill="#fff"/>
    </g>
    <g>
      <path d="M65.588,77.146h1.666c.095,0,.158-.148.03-.235a2.229,2.229,0,0,1-.49-2.532l-1.343-.035Z" fill="#fff"/>
      <path d="M91.115,77.146H89.524c-.095,0-.158-.148-.03-.235a2.208,2.208,0,0,0,.415-2.532l1.343-.035Z" fill="#fff"/>
      <path d="M65.807,77.146,71,62.62H85.537l5.39,14.526h7.366L81.447,35.161,77.4,38.3,60.8,77.146Zm12.3-33.432,6.361,16.273H71.8Z" fill="#fff"/>
    </g>
    <g>
      <path d="M104.5,35.161h-1.872a.125.125,0,0,0-.03.235,4.728,4.728,0,0,1,1.906,3.027C104.5,36.969,104.5,35.161,104.5,35.161Z" fill="#fff"/>
      <path d="M104.5,77.146h-1.562c-.095,0-.158-.148-.03-.235a4.538,4.538,0,0,0,1.595-3.017l0-.01Z" fill="#fff"/>
      <path d="M110.805,77.146h1.569c.095,0,.158-.148.03-.235a4.54,4.54,0,0,1-1.6-3.017l0-.01Z" fill="#fff"/>
      <path d="M125.171,77.146h-1.8c-.1,0-.119-.125-.062-.221.479-.909.192-2.362-.41-3.865l.834-.068Z" fill="#fff"/>
      <path d="M104.5,35.163l-.022,41.981h6.344L110.8,58.12h4.962s8.089,17.227,9.285,19.024h7.785L122.168,56.758a17.688,17.688,0,0,0,4.674-1.943c2.476-1.444,4.81-4.319,4.863-9.586.063-6.384-6.221-9.155-7.778-9.52a21.888,21.888,0,0,0-5-.548Zm6.3,2.4h5.7a7.66,7.66,0,0,1,8.373,8.284c0,3-.63,4.989-2.722,6.789-1.495,1.287-4.083,1.846-6.8,1.846H110.8Z" fill="#fff"/>
    </g>
    <g>
      <path d="M361.644,56.405a20.166,20.166,0,0,1-2.012,9.291,19.021,19.021,0,0,1-5.236,6.451,22.764,22.764,0,0,1-7.308,3.758,28.427,28.427,0,0,1-8.373,1.242H327.058V35.162l12.84,0a24.43,24.43,0,0,1,7.456,1.169,22.25,22.25,0,0,1,6.391,3.151,18.168,18.168,0,0,1,5.8,6.9A22.443,22.443,0,0,1,361.644,56.405Zm-7.248-.034a23.485,23.485,0,0,0-1.125-7.5,17.145,17.145,0,0,0-3.284-5.843,14.456,14.456,0,0,0-5.015-3.74,15.675,15.675,0,0,0-6.612-1.363q-1.214,0-2.737.043t-2.263.073l.052,36.127s4.168.177,6.339.177a15.474,15.474,0,0,0,6.568-1.3,11.813,11.813,0,0,0,4.556-3.625,16.054,16.054,0,0,0,2.677-5.64A29.254,29.254,0,0,0,354.4,56.371Z" fill="#fff"/>
      <path d="M327.061,35.162H325.19a.125.125,0,0,0-.03.235,4.732,4.732,0,0,1,1.906,3.028C327.066,36.97,327.061,35.162,327.061,35.162Z" fill="#fff"/>
      <path d="M327.069,77.147h-1.562c-.1,0-.158-.148-.03-.235a4.538,4.538,0,0,0,1.6-3.017l0-.01Z" fill="#fff"/>
    </g>
    <g>
      <path d="M254.928,77.147h1.666c.1,0,.158-.148.03-.235a2.229,2.229,0,0,1-.49-2.532l-1.343-.035Z" fill="#fff"/>
      <path d="M280.455,77.147h-1.591c-.095,0-.158-.148-.03-.235a2.208,2.208,0,0,0,.415-2.532l1.343-.035Z" fill="#fff"/>
      <path d="M255.148,77.147l5.2-14.526h14.533l5.39,14.526h7.366L270.787,35.162,266.744,38.3,250.137,77.147Zm12.3-33.432,6.361,16.273h-12.67Z" fill="#fff"/>
    </g>
    <g>
      <path d="M190.063,77.146h1.666c.095,0,.157-.148.03-.235a2.228,2.228,0,0,1-.49-2.532l-1.343-.035Z" fill="#fff"/>
      <path d="M215.59,77.146H214c-.095,0-.158-.148-.03-.235a2.207,2.207,0,0,0,.414-2.532l1.343-.035Z" fill="#fff"/>
      <path d="M190.282,77.146l5.2-14.526h14.533l5.39,14.526h7.366L205.922,35.161,201.879,38.3,185.271,77.146Zm12.3-33.432,6.361,16.273h-12.67Z" fill="#fff"/>
    </g>
    <g>
      <path d="M293.3,35.162h-1.872a.125.125,0,0,0-.029.235,4.736,4.736,0,0,1,1.906,3.028C293.3,36.97,293.3,35.162,293.3,35.162Z" fill="#fff"/>
      <path d="M293.305,77.147h-1.563c-.1,0-.157-.148-.029-.235a4.542,4.542,0,0,0,1.595-3.017v-.01Z" fill="#fff"/>
      <path d="M299.607,77.147h1.568c.1,0,.158-.148.03-.235a4.54,4.54,0,0,1-1.6-3.017v-.01Z" fill="#fff"/>
      <path d="M313.973,77.147h-1.8c-.1,0-.119-.125-.061-.221.478-.909.191-2.362-.41-3.865l.834-.068Z" fill="#fff"/>
      <path d="M293.3,35.164l-.022,41.981h6.344l-.02-19.024h4.962s8.089,17.227,9.285,19.024h7.785L310.97,56.759a17.689,17.689,0,0,0,4.673-1.943c2.476-1.444,4.81-4.319,4.863-9.586.064-6.384-6.22-9.155-7.778-9.52a21.879,21.879,0,0,0-5-.548Zm6.3,2.395h5.7a7.662,7.662,0,0,1,8.373,8.284c0,3-.631,4.989-2.722,6.789-1.495,1.287-4.083,1.846-6.8,1.846H299.6Z" fill="#fff"/>
    </g>
    <g>
      <path d="M139.335,35.161h-1.872a.125.125,0,0,0-.029.235,4.736,4.736,0,0,1,1.906,3.027C139.34,36.969,139.335,35.161,139.335,35.161Z" fill="#fff"/>
      <path d="M178.771,35.161h1.872a.125.125,0,0,1,.03.235,4.728,4.728,0,0,0-1.906,3.027C178.767,36.969,178.771,35.161,178.771,35.161Z" fill="#fff"/>
      <path d="M172.525,77.146h-1.562c-.1,0-.158-.148-.03-.235a4.538,4.538,0,0,0,1.595-3.017l0-.01Z" fill="#fff"/>
      <path d="M178.827,77.146H180.4c.1,0,.157-.148.029-.235a4.543,4.543,0,0,1-1.6-3.017l0-.01Z" fill="#fff"/>
      <path d="M139.312,77.146h-1.563c-.095,0-.157-.148-.029-.235a4.542,4.542,0,0,0,1.595-3.017v-.01Z" fill="#fff"/>
      <path d="M142.844,77.146h1.569c.095,0,.158-.148.03-.235a4.54,4.54,0,0,1-1.6-3.017l0-.01Z" fill="#fff"/>
      <polygon points="139.331 35.159 139.272 77.145 142.905 77.145 142.268 39.952 142.652 39.952 155.458 77.145 160.841 77.145 172.09 40.692 172.534 40.692 172.478 77.145 178.828 77.145 178.828 35.159 171.496 35.159 159.994 71.86 147.12 35.159 139.331 35.159" fill="#fff"/>
    </g>
    <g>
      <path d="M221.219,35.162h-1.872a.125.125,0,0,0-.03.235,9.462,9.462,0,0,1,3.053,3.028A7.624,7.624,0,0,0,221.219,35.162Z" fill="#fff"/>
      <path d="M256.02,35.162h1.466a.125.125,0,0,1,.03.235,8.445,8.445,0,0,0-3.356,2.9C254.16,36.839,256.02,35.162,256.02,35.162Z" fill="#fff"/>
      <path d="M234.637,77.147h-1.562c-.1,0-.158-.148-.03-.235A4.538,4.538,0,0,0,234.64,73.9l0-.01Z" fill="#fff"/>
      <path d="M240.939,77.147h1.569c.095,0,.157-.148.029-.235a4.543,4.543,0,0,1-1.6-3.017l0-.01Z" fill="#fff"/>
      <path d="M234.637,77.147h6.3l.118-16.75,14.958-25.235h-4.06s-9.192,16.014-12.288,21c-1.558-2.8-11.432-21-11.432-21h-7.684l14.086,25.254Z" fill="#fff"/>
    </g>
  </g>
</svg>
